HIERARCHY
ROOT Hips
{
	OFFSET 0.000000 0.000000 0.000000
	CHANNELS 6 Xposition Yposition Zposition Yrotation Xrotation Zrotation
	JOINT Chest
	{
		OFFSET 0.000000 10.364816 -1.151646
		CHANNELS 3 Yrotation Xrotation Zrotation
		JOINT Chest2
		{
			OFFSET 0.000000 11.517722 -0.000000
			CHANNELS 3 Yrotation Xrotation Zrotation
			JOINT Chest3
			{
				OFFSET 0.000000 10.515804 -0.000996
				CHANNELS 3 Yrotation Xrotation Zrotation
				JOINT Chest4
				{
					OFFSET 0.000000 10.504063 -0.000998
					CHANNELS 3 Yrotation Xrotation Zrotation
					JOINT Neck
					{
						OFFSET 0.000000 14.700996 0.000000
						CHANNELS 3 Yrotation Xrotation Zrotation
						JOINT Head
						{
							OFFSET 0.000000 9.779655 0.002144
							CHANNELS 3 Yrotation Xrotation Zrotation
							End Site
							{
								OFFSET 0.000000 18.151802 0.000288
							}
						}
					}
					JOINT RightCollar
					{
						OFFSET -3.200323 8.241253 -0.000000
						CHANNELS 3 Yrotation Xrotation Zrotation
						JOINT RightShoulder
						{
							OFFSET -14.963747 0.000000 0.000000
							CHANNELS 3 Yrotation Xrotation Zrotation
							JOINT RightElbow
							{
								OFFSET -31.975845 0.000000 0.000000
								CHANNELS 3 Yrotation Xrotation Zrotation
								JOINT RightWrist
								{
									OFFSET -26.149033 0.000000 0.000000
									CHANNELS 3 Yrotation Xrotation Zrotation
									End Site
									{
										OFFSET -19.551819 0.000000 0.000000
									}
								}
							}
						}
					}
					JOINT LeftCollar
					{
						OFFSET 3.200323 8.241253 -0.000000
						CHANNELS 3 Yrotation Xrotation Zrotation
						JOINT LeftShoulder
						{
							OFFSET 14.963747 0.000000 0.000000
							CHANNELS 3 Yrotation Xrotation Zrotation
							JOINT LeftElbow
							{
								OFFSET 31.975845 0.000000 0.000000
								CHANNELS 3 Yrotation Xrotation Zrotation
								JOINT LeftWrist
								{
									OFFSET 26.149033 0.000000 0.000000
									CHANNELS 3 Yrotation Xrotation Zrotation
									End Site
									{
										OFFSET 19.551819 0.000000 0.000000
									}
								}
							}
						}
					}
				}
			}
		}
	}
	JOINT RightHip
	{
		OFFSET -8.525852 0.003604 -0.000400
		CHANNELS 3 Yrotation Xrotation Zrotation
		JOINT RightKnee
		{
			OFFSET 0.000000 -44.087433 -0.000236
			CHANNELS 3 Yrotation Xrotation Zrotation
			JOINT RightAnkle
			{
				OFFSET 0.000000 -43.085331 -0.000397
				CHANNELS 3 Yrotation Xrotation Zrotation
				JOINT RightToe
				{
					OFFSET 0.000000 -7.938347 18.057957
					CHANNELS 3 Yrotation Xrotation Zrotation
					End Site
					{
						OFFSET 0.000000 -1.698112 7.444336
					}
				}
			}
		}
	}
	JOINT LeftHip
	{
		OFFSET 8.525852 0.001277 -0.000142
		CHANNELS 3 Yrotation Xrotation Zrotation
		JOINT LeftKnee
		{
			OFFSET 0.000000 -44.087433 -0.000236
			CHANNELS 3 Yrotation Xrotation Zrotation
			JOINT LeftAnkle
			{
				OFFSET 0.000000 -43.085323 -0.000397
				CHANNELS 3 Yrotation Xrotation Zrotation
				JOINT LeftToe
				{
					OFFSET 0.000000 -7.938347 18.057957
					CHANNELS 3 Yrotation Xrotation Zrotation
					End Site
					{
						OFFSET 0.000000 -1.698112 7.444336
					}
				}
			}
		}
	}
}
MOTION
Frames: 17
Frame Time: 0.004184
-372.761379 93.087708 -9.212345 -91.152221 1.035267 2.155476 -2.478788 2.937056 -0.928299 -1.055036 -4.515891 -0.397863 -1.051986 1.303559 -0.504982 -0.826412 6.815099 -0.379173 0.195515 10.557877 0.809012 0.012719 -16.419474 1.475779 -0.213592 -2.750936 9.597311 0.941072 6.330471 76.579193 7.835271 0.683541 2.996059 2.368355 3.210240 -5.772472 -3.074862 -1.994391 -9.260808 -1.032270 -19.992517 -74.922913 -28.436241 -0.180888 -13.075712 -9.793665 -0.846234 10.530754 -15.640901 -27.813794 5.358102 0.382723 15.182923 -0.470262 4.134270 -12.105479 1.262150 -0.000000 -0.000003 0.000001 -4.091722 10.052432 -5.375265 5.968508 23.163936 -0.030226 -2.787005 -14.022451 -2.879965 -1.218451 -20.453575 6.749756
-373.404506 93.014145 -9.281557 -91.079309 1.047842 2.169103 -2.488584 2.869733 -0.907537 -1.060578 -4.545910 -0.388940 -1.057456 1.273530 -0.496621 -0.829919 6.792571 -0.372885 0.202913 10.587783 0.796179 0.033149 -16.364116 1.447368 -0.194758 -2.754875 9.645801 0.968796 6.235732 76.567459 7.882782 0.552139 2.974199 2.386400 3.202550 -5.783475 -3.064270 -1.963796 -9.281647 -0.881096 -19.693997 -75.016746 -28.283607 -0.045149 -13.052063 -9.775799 -0.843978 10.511437 -15.222554 -27.731099 5.279917 -0.312955 15.467264 -0.792338 4.862943 -11.666783 0.973339 -0.000001 -0.000000 -0.000001 -3.826866 9.894068 -5.163977 6.120722 24.100152 0.104247 -3.383334 -13.592841 -3.251636 -1.377261 -21.656892 7.185911
-374.043788 92.943893 -9.353235 -91.010017 1.059929 2.169130 -2.496392 2.804661 -0.879971 -1.065574 -4.574973 -0.376987 -1.062380 1.244458 -0.485174 -0.832784 6.770756 -0.364268 0.211060 10.616383 0.783316 0.055007 -16.311187 1.418592 -0.170061 -2.761616 9.694710 1.001519 6.134743 76.551497 7.934602 0.419700 2.956277 2.403289 3.195143 -5.792770 -3.051873 -1.936272 -9.303318 -0.722225 -19.390330 -75.118393 -28.112162 0.098141 -13.019058 -9.757549 -0.841084 10.493695 -14.788099 -27.659580 5.196898 -0.955926 15.782950 -1.083049 5.476037 -11.208547 0.714081 -0.000001 -0.000003 -0.000000 -3.561493 9.703219 -4.932534 6.278906 25.068739 0.236506 -3.980620 -13.097166 -3.592754 -1.547284 -22.917513 7.611507
-374.677669 92.877327 -9.427671 -90.946052 1.070551 2.152283 -2.501614 2.743510 -0.844104 -1.069823 -4.602344 -0.361328 -1.066569 1.217077 -0.469946 -0.834813 6.750204 -0.352796 0.220110 10.642615 0.770549 0.078513 -16.262653 1.389634 -0.137889 -2.771877 9.744217 1.040774 6.026410 76.529838 7.990432 0.287520 2.942929 2.418619 3.188151 -5.799918 -3.037490 -1.912730 -9.325735 -0.555356 -19.084158 -75.229206 -27.920717 0.248555 -12.975051 -9.739189 -0.837584 10.477858 -14.343636 -27.597933 5.111751 -1.517265 16.122407 -1.328368 5.937238 -10.737922 0.499965 -0.000001 -0.000000 -0.000001 -3.299723 9.478329 -4.679103 6.440074 26.069090 0.361753 -4.567045 -12.528958 -3.895395 -1.726943 -24.235984 8.018328
-375.304653 92.814941 -9.505182 -90.889095 1.078748 2.115264 -2.503651 2.687956 -0.798434 -1.073143 -4.627293 -0.341285 -1.069832 1.192122 -0.450240 -0.835809 6.731466 -0.337943 0.230200 10.665414 0.757994 0.103880 -16.220495 1.360667 -0.096626 -2.786374 9.794495 1.088103 5.909686 76.501035 8.049976 0.156887 2.934804 2.431979 3.181704 -5.804483 -3.020943 -1.894097 -9.348819 -0.380164 -18.778082 -75.350565 -27.708064 0.405625 -12.918378 -9.721016 -0.833525 10.464259 -13.895275 -27.544946 5.027211 -1.967508 16.478233 -1.513806 6.210820 -10.262224 0.346908 0.000001 -0.000004 -0.000001 -3.045793 9.217860 -4.401829 6.600933 27.100700 0.474728 -5.130174 -11.881662 -4.152072 -1.914166 -25.612885 8.397835
-375.923213 92.757149 -9.586044 -90.840853 1.083539 2.054793 -2.501907 2.639670 -0.741453 -1.075332 -4.649084 -0.316181 -1.071976 1.170325 -0.425357 -0.835574 6.715089 -0.319179 0.241481 10.683723 0.745769 0.131339 -16.186691 1.331849 -0.044653 -2.805828 9.845707 1.145075 5.783530 76.463565 8.112924 0.029067 2.932557 2.442960 3.175921 -5.806032 -3.002038 -1.881282 -9.372489 -0.196340 -18.474670 -75.483863 -27.473008 0.568831 -12.847338 -9.703349 -0.828952 10.453228 -13.449140 -27.499520 4.946058 -2.276682 16.842903 -1.624411 6.261619 -9.788863 0.271054 -0.000000 0.000001 0.000000 -2.804084 8.920337 -4.098784 6.757875 28.163143 0.569670 -5.656924 -11.148669 -4.355702 -2.106317 -27.048931 8.741066
-376.534755 92.703049 -9.671121 -90.802618 1.088389 1.967741 -2.496477 2.595194 -0.670534 -1.076573 -4.669263 -0.284860 -1.073178 1.150145 -0.394162 -0.834159 6.699911 -0.295651 0.254387 10.698926 0.731617 0.162763 -16.158669 1.298620 0.019115 -2.831222 9.894006 1.209970 5.651337 76.422686 8.177182 -0.098081 2.933061 2.451348 3.170479 -5.803320 -2.977814 -1.874397 -9.398964 0.007892 -18.167840 -75.633321 -27.216799 0.750807 -12.765197 -9.685936 -0.822930 10.445090 -12.972970 -27.479159 4.853209 -2.446330 17.251618 -1.653062 6.053851 -9.281138 0.294527 0.000001 0.000001 -0.000000 -2.563063 8.578735 -3.758782 6.926925 29.263986 0.651325 -6.181916 -10.293145 -4.507932 -2.330916 -28.697023 9.073825
-377.141750 92.651474 -9.760618 -90.773344 1.096539 1.855730 -2.488121 2.550505 -0.585639 -1.077209 -4.689614 -0.247323 -1.073776 1.129792 -0.356690 -0.831819 6.684594 -0.267385 0.269043 10.713074 0.713980 0.199110 -16.132601 1.257892 0.093629 -2.862374 9.936780 1.280043 5.516466 76.383296 8.241756 -0.227325 2.933517 2.457449 3.164985 -5.796039 -2.946556 -1.872479 -9.429754 0.239388 -17.850587 -75.799698 -26.941577 0.959969 -12.675060 -9.668310 -0.814834 10.439707 -12.439323 -27.496308 4.735586 -2.508165 17.735515 -1.609078 5.605485 -8.708110 0.415838 0.000001 -0.000004 0.000000 -2.311909 8.189726 -3.377348 7.122358 30.408808 0.730462 -6.739118 -9.298326 -4.618328 -2.613761 -30.653353 9.428772
-377.744472 92.602707 -9.853887 -90.751282 1.106775 1.722527 -2.477236 2.506399 -0.489138 -1.077292 -4.709766 -0.204618 -1.073824 1.109638 -0.313993 -0.828674 6.669421 -0.235178 0.285127 10.726115 0.694008 0.239236 -16.108627 1.212041 0.177305 -2.898254 9.976016 1.355347 5.377842 76.343367 8.307974 -0.358363 2.935080 2.461639 3.159467 -5.785154 -2.909971 -1.874858 -9.463694 0.491167 -17.524239 -75.979243 -26.647438 1.189400 -12.575079 -9.650432 -0.805191 10.436747 -11.861533 -27.542424 4.599026 -2.477096 18.280335 -1.501660 4.962260 -8.085552 0.615549 -0.000000 -0.000004 0.000001 -2.056135 7.757494 -2.962479 7.337670 31.594246 0.809637 -7.313848 -8.187723 -4.692089 -2.948115 -32.833843 9.806005
-378.343105 92.557022 -9.950270 -90.734651 1.117831 1.571931 -2.464212 2.463666 -0.383404 -1.076870 -4.729350 -0.157795 -1.073369 1.090054 -0.267127 -0.824837 6.654663 -0.199823 0.302312 10.737954 0.672850 0.281997 -16.086847 1.163427 0.268546 -2.937840 10.013705 1.435954 5.234418 76.300856 8.377158 -0.490907 2.938899 2.464295 3.153964 -5.771615 -2.869778 -1.880869 -9.499629 0.756311 -17.190181 -76.168371 -26.334447 1.432133 -12.463580 -9.632262 -0.794521 10.435860 -11.253047 -27.609001 4.449537 -2.368155 18.871577 -1.340230 4.169487 -7.428999 0.873900 -0.000002 0.000004 -0.000000 -1.801115 7.286375 -2.522054 7.566347 32.816839 0.890944 -7.891506 -6.984945 -4.734513 -3.325347 -35.154622 10.203595
-378.937831 92.514587 -10.049120 -90.721680 1.128475 1.407723 -2.449415 2.423111 -0.270811 -1.075991 -4.747994 -0.107903 -1.072462 1.071412 -0.217146 -0.820419 6.640604 -0.162117 0.320267 10.748530 0.651655 0.326238 -16.067412 1.114414 0.365752 -2.980121 10.051832 1.521962 5.085141 76.253721 8.450625 -0.624688 2.946110 2.465800 3.148524 -5.756386 -2.827696 -1.889852 -9.536413 1.027984 -16.849880 -76.363639 -26.002653 1.681129 -12.339045 -9.613748 -0.783343 10.436708 -10.627395 -27.687604 4.293338 -2.196720 19.494781 -1.134849 3.271804 -6.753979 1.170814 -0.000000 0.000001 0.000000 -1.552032 6.780881 -2.063804 7.801815 34.073102 0.975938 -8.457758 -5.713696 -4.750905 -3.734111 -37.532108 10.616335
-379.528926 92.475670 -10.149776 -90.710574 1.137467 1.233678 -2.433208 2.385528 -0.153730 -1.074689 -4.765329 -0.055996 -1.071140 1.054080 -0.165104 -0.815535 6.627526 -0.122859 0.338658 10.757755 0.631564 0.370805 -16.050463 1.067358 0.467301 -3.024111 10.092374 1.613498 4.929011 76.199885 8.529680 -0.759448 2.957848 2.466527 3.143214 -5.740423 -2.785451 -1.901168 -9.572895 1.299436 -16.504903 -76.561742 -25.652056 1.929288 -12.200182 -9.594835 -0.772174 10.438922 -9.998254 -27.769814 4.136912 -1.978727 20.135772 -0.896531 2.312919 -6.076127 1.485860 0.000001 0.000001 0.000001 -1.313823 6.245688 -1.595312 8.037351 35.359466 1.065531 -8.998704 -4.397794 -4.746550 -4.159275 -39.883107 11.034454
-380.116573 92.440521 -10.251591 -90.699537 1.143572 1.053605 -2.415932 2.351711 -0.034537 -1.073003 -4.780985 -0.003124 -1.069433 1.038427 -0.112062 -0.810284 6.615699 -0.082843 0.357154 10.765540 0.613722 0.414540 -16.036155 1.024612 0.571573 -3.068840 10.137316 1.710704 4.765023 76.137293 8.615641 -0.894957 2.975231 2.466856 3.138101 -5.724683 -2.744785 -1.914177 -9.607938 1.563979 -16.156901 -76.759517 -25.282661 2.169463 -12.045940 -9.575460 -0.761515 10.442121 -9.379410 -27.847316 3.987018 -1.730843 20.780905 -0.637507 1.335509 -5.411360 1.798208 0.000001 0.000002 0.000002 -1.091158 5.685649 -1.124010 8.266051 36.672324 1.159929 -9.500976 -3.061217 -4.726718 -4.580715 -42.124833 11.442328
-380.700984 92.409363 -10.353899 -90.686771 1.145558 0.871267 -2.397920 2.322452 0.084394 -1.070965 -4.794599 0.049657 -1.067381 1.024817 -0.059073 -0.804774 6.605402 -0.042866 0.375412 10.771802 0.599268 0.456284 -16.024662 0.988523 0.676924 -3.113362 10.188623 1.813758 4.592224 76.063862 8.709799 -1.031005 2.999367 2.467162 3.133283 -5.710129 -2.707439 -1.928260 -9.640411 1.815019 -15.807640 -76.953972 -24.894440 2.394427 -11.875533 -9.555568 -0.751867 10.445930 -8.784777 -27.911790 3.850694 -1.470581 21.417124 -0.371344 0.381124 -4.775923 2.086541 0.000001 -0.000001 -0.000001 -0.888386 5.105758 -0.657187 8.480672 38.008019 1.258512 -9.951834 -1.728066 -4.696681 -4.972339 -44.174925 11.817554
-381.282344 92.382439 -10.456062 -90.670454 1.142237 0.690463 -2.379491 2.298547 0.200689 -1.068600 -4.805807 0.101296 -1.065007 1.013616 -0.007195 -0.799103 6.596913 -0.003725 0.393091 10.776435 0.589342 0.494871 -16.016150 0.961439 0.781711 -3.156747 10.248269 1.922859 4.409664 75.977453 8.813471 -1.167409 3.031353 2.467814 3.128858 -5.697709 -2.675161 -1.942807 -9.669172 2.046041 -15.458919 -77.142281 -24.487386 2.596912 -11.688462 -9.535093 -0.743718 10.449940 -8.228382 -27.954970 3.735220 -1.216374 22.032102 -0.113003 -0.509802 -4.186373 2.329005 0.000001 -0.000003 -0.000001 -0.709539 4.511156 -0.201997 8.673594 39.362869 1.359780 -10.339232 -0.422590 -4.661803 -5.301735 -45.951457 12.130689
-381.860927 92.359970 -10.557424 -90.648782 1.132389 0.514966 -2.360953 2.280786 0.311977 -1.065928 -4.814240 0.150735 -1.062335 1.005186 0.042517 -0.793369 6.590502 0.033783 0.409850 10.779347 0.585078 0.529132 -16.010829 0.945703 0.884282 -3.198093 10.318220 2.038238 4.216433 75.875970 8.927951 -1.304009 3.072270 2.469179 3.124955 -5.688378 -2.649716 -1.957211 -9.693093 2.250577 -15.112705 -77.321723 -24.061489 2.769595 -11.484534 -9.513946 -0.737546 10.453748 -7.724296 -27.968622 3.648063 -0.987584 22.614174 0.121237 -1.297874 -3.659596 2.503112 -0.000000 -0.000000 -0.000001 -0.558306 3.907089 0.234523 8.836674 40.733189 1.461213 -10.651823 0.830871 -4.627600 -5.531211 -47.372635 12.346555
-382.436885 92.342232 -10.657326 -90.619890 1.114822 0.348570 -2.342610 2.269968 0.415888 -1.062975 -4.819542 0.196924 -1.059387 0.999890 0.089006 -0.787671 6.586446 0.068864 0.425347 10.780425 0.587612 0.557900 -16.008893 0.943654 0.982987 -3.236516 10.400455 2.160149 4.011645 75.757248 9.054545 -1.440687 3.123189 2.471622 3.121708 -5.683102 -2.632862 -1.970879 -9.711033 2.422264 -14.770953 -77.489712 -23.616813 2.905113 -11.263899 -9.492054 -0.733822 10.456922 -7.286602 -27.944457 3.596787 -0.804435 23.152287 0.313942 -1.944525 -3.212640 2.585712 -0.000001 -0.000003 0.000001 -0.438032 3.298896 0.645431 8.961118 42.115285 1.559203 -10.878977 2.007914 -4.599864 -5.621014 -48.356626 12.427703
